<svg width="320" height="27" viewBox="0 0 320 27" fill="none" xmlns="http://www.w3.org/2000/svg">
<path d="M160.012 13.6364C160.012 14.5568 159.846 15.3523 159.514 16.0227C159.181 16.6932 158.725 17.2102 158.146 17.5739C157.566 17.9375 156.904 18.1193 156.16 18.1193C155.416 18.1193 154.754 17.9375 154.174 17.5739C153.595 17.2102 153.139 16.6932 152.806 16.0227C152.474 15.3523 152.308 14.5568 152.308 13.6364C152.308 12.7159 152.474 11.9205 152.806 11.25C153.139 10.5795 153.595 10.0625 154.174 9.69886C154.754 9.33523 155.416 9.15341 156.16 9.15341C156.904 9.15341 157.566 9.33523 158.146 9.69886C158.725 10.0625 159.181 10.5795 159.514 11.25C159.846 11.9205 160.012 12.7159 160.012 13.6364ZM158.99 13.6364C158.99 12.8807 158.863 12.2429 158.61 11.723C158.36 11.2031 158.021 10.8097 157.592 10.5426C157.166 10.2756 156.688 10.142 156.16 10.142C155.632 10.142 155.153 10.2756 154.724 10.5426C154.298 10.8097 153.958 11.2031 153.705 11.723C153.455 12.2429 153.33 12.8807 153.33 13.6364C153.33 14.392 153.455 15.0298 153.705 15.5497C153.958 16.0696 154.298 16.4631 154.724 16.7301C155.153 16.9972 155.632 17.1307 156.16 17.1307C156.688 17.1307 157.166 16.9972 157.592 16.7301C158.021 16.4631 158.36 16.0696 158.61 15.5497C158.863 15.0298 158.99 14.392 158.99 13.6364ZM161.789 18V9.27273H164.738C165.42 9.27273 165.98 9.3892 166.417 9.62216C166.855 9.85227 167.178 10.169 167.389 10.5724C167.599 10.9759 167.704 11.4347 167.704 11.9489C167.704 12.4631 167.599 12.919 167.389 13.3168C167.178 13.7145 166.856 14.027 166.421 14.2543C165.987 14.4787 165.431 14.5909 164.755 14.5909H162.369V13.6364H164.721C165.187 13.6364 165.562 13.5682 165.846 13.4318C166.133 13.2955 166.34 13.1023 166.468 12.8523C166.599 12.5994 166.664 12.2983 166.664 11.9489C166.664 11.5994 166.599 11.294 166.468 11.0327C166.338 10.7713 166.129 10.5696 165.842 10.4276C165.555 10.2827 165.176 10.2102 164.704 10.2102H162.846V18H161.789ZM165.897 14.0795L168.045 18H166.818L164.704 14.0795H165.897Z" fill="#2E3339"/>
<line y1="13.5" x2="138" y2="13.5" stroke="#C3C8CF"/>
<line x1="182" y1="13.5" x2="320" y2="13.5" stroke="#C3C8CF"/>
</svg>
